<svg width="133" height="52" viewBox="0 0 133 52" fill="none" xmlns="http://www.w3.org/2000/svg">
<rect x="1.5" y="0.5" width="130.656" height="47" rx="7.5" fill="#181916"/>
<rect x="1.5" y="0.5" width="130.656" height="47" rx="7.5" fill="url(#paint0_linear_12794_22523)" fill-opacity="0.1"/>
<rect x="1.5" y="0.5" width="130.656" height="47" rx="7.5" stroke="#484946"/>
<g filter="url(#filter0_dd_12794_22523)">
<g clip-path="url(#clip0_12794_22523)">
<path d="M5 8C5 5.79086 6.79086 4 9 4H45V44H9C6.79086 44 5 42.2091 5 40V8Z" fill="url(#paint1_linear_12794_22523)" fill-opacity="0.3"/>
<g opacity="0.3">
<line x1="14.1844" y1="4.80176" x2="14.1844" y2="43.7588" stroke="#6E6F6C" stroke-width="0.4" stroke-dasharray="2 2"/>
<line x1="36.0672" y1="4.80176" x2="36.0672" y2="43.7588" stroke="#6E6F6C" stroke-width="0.4" stroke-dasharray="2 2"/>
</g>
<g opacity="0.3">
<line x1="44.6016" y1="12.535" x2="5.79741" y2="12.535" stroke="#6E6F6C" stroke-width="0.4" stroke-dasharray="2 2"/>
<line x1="44.5937" y1="35.49" x2="5.7896" y2="35.49" stroke="#6E6F6C" stroke-width="0.4" stroke-dasharray="2 2"/>
</g>
<path fill-rule="evenodd" clip-rule="evenodd" d="M17.4574 14.0316C19.586 12.9543 22.2071 12.2139 25.0252 12.2139C27.6993 12.2139 30.4125 12.9206 32.5471 14.001C32.8801 14.1695 33.0134 14.576 32.8449 14.909C32.6764 15.2419 32.2699 15.3752 31.9369 15.2067C29.9836 14.2182 27.4786 13.5653 25.0252 13.5653C22.4403 13.5653 20.0269 14.2457 18.0676 15.2373C17.7346 15.4059 17.3281 15.2725 17.1596 14.9396C16.9911 14.6066 17.1244 14.2001 17.4574 14.0316ZM18.793 16.3793C20.6365 15.5188 23.0087 15.0608 25.0163 15.0608C27.0268 15.0608 29.3396 15.5198 31.1809 16.3793C33.2334 17.3374 34.9506 18.7281 36.1271 20.3621C36.3451 20.6649 36.2764 21.0872 35.9735 21.3052C35.6707 21.5233 35.2484 21.4545 35.0304 21.1517C34.0028 19.7245 32.4751 18.4748 30.6093 17.6039C28.966 16.8368 26.8514 16.4122 25.0163 16.4122C23.1785 16.4122 21.0056 16.8378 19.3646 17.6039C17.5777 18.438 15.976 19.7798 14.9756 21.1803C14.7586 21.4839 14.3366 21.5542 14.033 21.3373C13.7293 21.1204 13.659 20.6984 13.8759 20.3947C15.0183 18.7955 16.8059 17.3069 18.793 16.3793ZM24.9192 17.8465C28.8506 17.8087 32.2779 19.8333 34.0157 22.7364C34.9274 24.2596 35.2442 25.7899 35.2442 27.0936C35.2442 29.2749 33.2496 30.6468 31.4461 30.6468C30.5393 30.6468 29.5811 30.4041 28.8247 29.8273C28.0475 29.2347 27.5319 28.3239 27.4952 27.1141C27.4718 26.3401 27.1153 25.8233 26.6289 25.4796C26.12 25.1201 25.4653 24.953 24.9257 24.953C23.4604 24.953 22.4177 26.0329 22.4177 27.0936C22.4177 27.9412 22.6826 29.1245 23.0327 29.9104C23.387 30.7055 24.0216 31.631 24.6444 32.1946L24.6508 32.2004L24.6571 32.2064C25.6676 33.1691 26.9341 34.0288 28.7899 34.4515C29.1538 34.5343 29.3816 34.8965 29.2987 35.2603C29.2158 35.6242 28.8537 35.852 28.4898 35.7691C26.3497 35.2817 24.8752 34.2792 23.7311 33.1907C22.9495 32.4811 22.215 31.3957 21.7983 30.4604C21.3763 29.5133 21.0664 28.1433 21.0664 27.0936C21.0664 25.1543 22.8535 23.6016 24.9257 23.6016C25.7024 23.6016 26.6396 23.8325 27.4087 24.3759C28.2004 24.9353 28.8082 25.8267 28.846 27.0731C28.8705 27.8837 29.1968 28.4116 29.6441 28.7527C30.1121 29.1096 30.761 29.2954 31.4461 29.2954C32.7059 29.2954 33.8928 28.3409 33.8928 27.0936C33.8928 26.0095 33.6302 24.7236 32.8561 23.4304C31.3716 20.9504 28.3971 19.1645 24.9322 19.1979C21.9287 19.2267 18.727 20.6448 17.088 23.3984C16.3888 24.573 16.0382 25.9153 16.0807 27.318C16.1389 29.238 16.4202 30.0487 16.9252 31.3854C17.0571 31.7345 16.881 32.1244 16.5319 32.2563C16.1828 32.3882 15.7929 32.2121 15.661 31.863C15.1251 30.4445 14.7942 29.4797 14.73 27.359C14.6797 25.7005 15.0953 24.104 15.9268 22.7072C17.8591 19.4608 21.5554 17.8789 24.9192 17.8465ZM17.9133 26.9648C17.9174 23.4799 21.2775 20.724 24.9257 20.724C28.556 20.724 32.0606 23.2211 32.0606 27.1854C32.0606 27.5586 31.758 27.8611 31.3849 27.8611C31.0117 27.8611 30.7092 27.5586 30.7092 27.1854C30.7092 24.1702 28.0301 22.0754 24.9257 22.0754C21.8414 22.0754 19.2647 24.3979 19.2647 26.9711V26.9773L19.2646 26.9835C19.2387 28.3968 19.464 29.7488 20.2012 31.1948C20.9514 32.6664 21.8537 33.6666 22.6783 34.3925C22.9584 34.6391 22.9856 35.066 22.739 35.3462C22.4925 35.6263 22.0655 35.6534 21.7854 35.4069C20.8581 34.5906 19.8389 33.4595 18.9972 31.8086C18.1437 30.1343 17.8849 28.5576 17.9133 26.9648ZM24.9257 26.4179C25.2989 26.4179 25.6014 26.7204 25.6014 27.0936C25.6014 27.9428 25.8346 28.7463 26.2761 29.5107C26.7033 30.2502 27.2596 30.7829 28.0177 31.2422C29.1165 31.8418 29.878 32.0496 31.0309 32.0201L31.0355 32.02L31.0402 32.02C31.491 32.0146 32.0214 31.9774 32.4421 31.904C32.8098 31.8399 33.1598 32.086 33.2239 32.4536C33.288 32.8212 33.0419 33.1712 32.6743 33.2353C32.1622 33.3246 31.5575 33.3651 31.0607 33.3712C29.6331 33.407 28.6373 33.1217 27.3565 32.4209L27.344 32.4141L27.3319 32.4067C26.4021 31.846 25.666 31.1562 25.1059 30.1867C24.558 29.2381 24.25 28.2036 24.25 27.0936C24.25 26.7204 24.5525 26.4179 24.9257 26.4179Z" fill="#F35B22"/>
<path fill-rule="evenodd" clip-rule="evenodd" d="M17.4574 14.0316C19.586 12.9543 22.2071 12.2139 25.0252 12.2139C27.6993 12.2139 30.4125 12.9206 32.5471 14.001C32.8801 14.1695 33.0134 14.576 32.8449 14.909C32.6764 15.2419 32.2699 15.3752 31.9369 15.2067C29.9836 14.2182 27.4786 13.5653 25.0252 13.5653C22.4403 13.5653 20.0269 14.2457 18.0676 15.2373C17.7346 15.4059 17.3281 15.2725 17.1596 14.9396C16.9911 14.6066 17.1244 14.2001 17.4574 14.0316ZM18.793 16.3793C20.6365 15.5188 23.0087 15.0608 25.0163 15.0608C27.0268 15.0608 29.3396 15.5198 31.1809 16.3793C33.2334 17.3374 34.9506 18.7281 36.1271 20.3621C36.3451 20.6649 36.2764 21.0872 35.9735 21.3052C35.6707 21.5233 35.2484 21.4545 35.0304 21.1517C34.0028 19.7245 32.4751 18.4748 30.6093 17.6039C28.966 16.8368 26.8514 16.4122 25.0163 16.4122C23.1785 16.4122 21.0056 16.8378 19.3646 17.6039C17.5777 18.438 15.976 19.7798 14.9756 21.1803C14.7586 21.4839 14.3366 21.5542 14.033 21.3373C13.7293 21.1204 13.659 20.6984 13.8759 20.3947C15.0183 18.7955 16.8059 17.3069 18.793 16.3793ZM24.9192 17.8465C28.8506 17.8087 32.2779 19.8333 34.0157 22.7364C34.9274 24.2596 35.2442 25.7899 35.2442 27.0936C35.2442 29.2749 33.2496 30.6468 31.4461 30.6468C30.5393 30.6468 29.5811 30.4041 28.8247 29.8273C28.0475 29.2347 27.5319 28.3239 27.4952 27.1141C27.4718 26.3401 27.1153 25.8233 26.6289 25.4796C26.12 25.1201 25.4653 24.953 24.9257 24.953C23.4604 24.953 22.4177 26.0329 22.4177 27.0936C22.4177 27.9412 22.6826 29.1245 23.0327 29.9104C23.387 30.7055 24.0216 31.631 24.6444 32.1946L24.6508 32.2004L24.6571 32.2064C25.6676 33.1691 26.9341 34.0288 28.7899 34.4515C29.1538 34.5343 29.3816 34.8965 29.2987 35.2603C29.2158 35.6242 28.8537 35.852 28.4898 35.7691C26.3497 35.2817 24.8752 34.2792 23.7311 33.1907C22.9495 32.4811 22.215 31.3957 21.7983 30.4604C21.3763 29.5133 21.0664 28.1433 21.0664 27.0936C21.0664 25.1543 22.8535 23.6016 24.9257 23.6016C25.7024 23.6016 26.6396 23.8325 27.4087 24.3759C28.2004 24.9353 28.8082 25.8267 28.846 27.0731C28.8705 27.8837 29.1968 28.4116 29.6441 28.7527C30.1121 29.1096 30.761 29.2954 31.4461 29.2954C32.7059 29.2954 33.8928 28.3409 33.8928 27.0936C33.8928 26.0095 33.6302 24.7236 32.8561 23.4304C31.3716 20.9504 28.3971 19.1645 24.9322 19.1979C21.9287 19.2267 18.727 20.6448 17.088 23.3984C16.3888 24.573 16.0382 25.9153 16.0807 27.318C16.1389 29.238 16.4202 30.0487 16.9252 31.3854C17.0571 31.7345 16.881 32.1244 16.5319 32.2563C16.1828 32.3882 15.7929 32.2121 15.661 31.863C15.1251 30.4445 14.7942 29.4797 14.73 27.359C14.6797 25.7005 15.0953 24.104 15.9268 22.7072C17.8591 19.4608 21.5554 17.8789 24.9192 17.8465ZM17.9133 26.9648C17.9174 23.4799 21.2775 20.724 24.9257 20.724C28.556 20.724 32.0606 23.2211 32.0606 27.1854C32.0606 27.5586 31.758 27.8611 31.3849 27.8611C31.0117 27.8611 30.7092 27.5586 30.7092 27.1854C30.7092 24.1702 28.0301 22.0754 24.9257 22.0754C21.8414 22.0754 19.2647 24.3979 19.2647 26.9711V26.9773L19.2646 26.9835C19.2387 28.3968 19.464 29.7488 20.2012 31.1948C20.9514 32.6664 21.8537 33.6666 22.6783 34.3925C22.9584 34.6391 22.9856 35.066 22.739 35.3462C22.4925 35.6263 22.0655 35.6534 21.7854 35.4069C20.8581 34.5906 19.8389 33.4595 18.9972 31.8086C18.1437 30.1343 17.8849 28.5576 17.9133 26.9648ZM24.9257 26.4179C25.2989 26.4179 25.6014 26.7204 25.6014 27.0936C25.6014 27.9428 25.8346 28.7463 26.2761 29.5107C26.7033 30.2502 27.2596 30.7829 28.0177 31.2422C29.1165 31.8418 29.878 32.0496 31.0309 32.0201L31.0355 32.02L31.0402 32.02C31.491 32.0146 32.0214 31.9774 32.4421 31.904C32.8098 31.8399 33.1598 32.086 33.2239 32.4536C33.288 32.8212 33.0419 33.1712 32.6743 33.2353C32.1622 33.3246 31.5575 33.3651 31.0607 33.3712C29.6331 33.407 28.6373 33.1217 27.3565 32.4209L27.344 32.4141L27.3319 32.4067C26.4021 31.846 25.666 31.1562 25.1059 30.1867C24.558 29.2381 24.25 28.2036 24.25 27.0936C24.25 26.7204 24.5525 26.4179 24.9257 26.4179Z" fill="url(#paint2_linear_12794_22523)" fill-opacity="0.08"/>
</g>
<path d="M9 4.5H44.5V43.5H9C7.067 43.5 5.5 41.933 5.5 40V8C5.5 6.067 7.067 4.5 9 4.5Z" stroke="#484946"/>
</g>
<g filter="url(#filter1_dd_12794_22523)">
<mask id="path-9-inside-1_12794_22523" fill="white">
<path d="M45 4H124.656C126.865 4 128.656 5.79086 128.656 8V40C128.656 42.2091 126.865 44 124.656 44H45V4Z"/>
</mask>
<path d="M45 3H124.656C127.418 3 129.656 5.23858 129.656 8H127.656C127.656 6.34315 126.313 5 124.656 5H45V3ZM129.656 40C129.656 42.7614 127.418 45 124.656 45H45V43H124.656C126.313 43 127.656 41.6569 127.656 40H129.656ZM45 44V4V44ZM124.656 3C127.418 3 129.656 5.23858 129.656 8V40C129.656 42.7614 127.418 45 124.656 45V43C126.313 43 127.656 41.6569 127.656 40V8C127.656 6.34315 126.313 5 124.656 5V3Z" fill="#484946" mask="url(#path-9-inside-1_12794_22523)"/>
<path d="M53.9688 21.5V13.5H56.6719C57.2995 13.5 57.8125 13.6133 58.2109 13.8398C58.612 14.0638 58.9089 14.3672 59.1016 14.75C59.2943 15.1328 59.3906 15.5599 59.3906 16.0312C59.3906 16.5026 59.2943 16.931 59.1016 17.3164C58.9115 17.7018 58.6172 18.0091 58.2188 18.2383C57.8203 18.4648 57.3099 18.5781 56.6875 18.5781H54.75V17.7188H56.6563C57.0859 17.7188 57.431 17.6445 57.6914 17.4961C57.9518 17.3477 58.1406 17.1471 58.2578 16.8945C58.3776 16.6393 58.4375 16.3516 58.4375 16.0312C58.4375 15.7109 58.3776 15.4245 58.2578 15.1719C58.1406 14.9193 57.9505 14.7214 57.6875 14.5781C57.4245 14.4323 57.0755 14.3594 56.6406 14.3594H54.9375V21.5H53.9688ZM60.4962 21.5V15.5H61.3868V16.4062H61.4493C61.5587 16.1094 61.7566 15.8685 62.043 15.6836C62.3295 15.4987 62.6524 15.4062 63.0118 15.4062C63.0795 15.4062 63.1641 15.4076 63.2657 15.4102C63.3673 15.4128 63.4441 15.4167 63.4962 15.4219V16.3594C63.4649 16.3516 63.3933 16.3398 63.2813 16.3242C63.172 16.306 63.0561 16.2969 62.9337 16.2969C62.642 16.2969 62.3816 16.3581 62.1524 16.4805C61.9259 16.6003 61.7462 16.7669 61.6134 16.9805C61.4832 17.1914 61.418 17.4323 61.418 17.7031V21.5H60.4962ZM66.5138 21.625C65.9722 21.625 65.4969 21.4961 65.088 21.2383C64.6818 20.9805 64.3641 20.6198 64.1349 20.1562C63.9084 19.6927 63.7951 19.151 63.7951 18.5312C63.7951 17.9062 63.9084 17.3607 64.1349 16.8945C64.3641 16.4284 64.6818 16.0664 65.088 15.8086C65.4969 15.5508 65.9722 15.4219 66.5138 15.4219C67.0555 15.4219 67.5295 15.5508 67.9357 15.8086C68.3446 16.0664 68.6623 16.4284 68.8888 16.8945C69.118 17.3607 69.2326 17.9062 69.2326 18.5312C69.2326 19.151 69.118 19.6927 68.8888 20.1562C68.6623 20.6198 68.3446 20.9805 67.9357 21.2383C67.5295 21.4961 67.0555 21.625 66.5138 21.625ZM66.5138 20.7969C66.9253 20.7969 67.2638 20.6914 67.5295 20.4805C67.7951 20.2695 67.9917 19.9922 68.1193 19.6484C68.2469 19.3047 68.3107 18.9323 68.3107 18.5312C68.3107 18.1302 68.2469 17.7565 68.1193 17.4102C67.9917 17.0638 67.7951 16.7839 67.5295 16.5703C67.2638 16.3568 66.9253 16.25 66.5138 16.25C66.1024 16.25 65.7638 16.3568 65.4982 16.5703C65.2326 16.7839 65.036 17.0638 64.9084 17.4102C64.7808 17.7565 64.717 18.1302 64.717 18.5312C64.717 18.9323 64.7808 19.3047 64.9084 19.6484C65.036 19.9922 65.2326 20.2695 65.4982 20.4805C65.7638 20.6914 66.1024 20.7969 66.5138 20.7969ZM72.9192 15.5V16.2812H69.8098V15.5H72.9192ZM70.7161 14.0625H71.6379V19.7812C71.6379 20.0417 71.6757 20.237 71.7512 20.3672C71.8293 20.4948 71.9283 20.5807 72.0481 20.625C72.1705 20.6667 72.2994 20.6875 72.4348 20.6875C72.5364 20.6875 72.6197 20.6823 72.6848 20.6719C72.7499 20.6589 72.802 20.6484 72.8411 20.6406L73.0286 21.4687C72.9661 21.4922 72.8788 21.5156 72.7668 21.5391C72.6549 21.5651 72.5129 21.5781 72.3411 21.5781C72.0806 21.5781 71.8254 21.5221 71.5754 21.4102C71.328 21.2982 71.1223 21.1276 70.9582 20.8984C70.7968 20.6693 70.7161 20.3802 70.7161 20.0312V14.0625ZM76.4271 21.625C75.8489 21.625 75.3502 21.4974 74.931 21.2422C74.5143 20.9844 74.1927 20.625 73.9661 20.1641C73.7422 19.7005 73.6302 19.1615 73.6302 18.5469C73.6302 17.9323 73.7422 17.3906 73.9661 16.9219C74.1927 16.4505 74.5078 16.0833 74.9114 15.8203C75.3177 15.5547 75.7917 15.4219 76.3333 15.4219C76.6458 15.4219 76.9544 15.474 77.2591 15.5781C77.5638 15.6823 77.8411 15.8516 78.0911 16.0859C78.3411 16.3177 78.5404 16.625 78.6888 17.0078C78.8372 17.3906 78.9114 17.862 78.9114 18.4219V18.8125H74.2864V18.0156H77.9739C77.9739 17.6771 77.9062 17.375 77.7708 17.1094C77.638 16.8437 77.4479 16.6341 77.2005 16.4805C76.9557 16.3268 76.6667 16.25 76.3333 16.25C75.9661 16.25 75.6484 16.3411 75.3802 16.5234C75.1146 16.7031 74.9101 16.9375 74.7669 17.2266C74.6237 17.5156 74.5521 17.8255 74.5521 18.1562V18.6875C74.5521 19.1406 74.6302 19.5247 74.7864 19.8398C74.9453 20.1523 75.1654 20.3906 75.4466 20.5547C75.7279 20.7161 76.0547 20.7969 76.4271 20.7969C76.6693 20.7969 76.888 20.763 77.0833 20.6953C77.2812 20.625 77.4518 20.5208 77.595 20.3828C77.7383 20.2422 77.8489 20.0677 77.9271 19.8594L78.8177 20.1094C78.7239 20.4115 78.5664 20.6771 78.345 20.9062C78.1237 21.1328 77.8502 21.3099 77.5247 21.4375C77.1992 21.5625 76.8333 21.625 76.4271 21.625ZM82.4213 21.625C81.8588 21.625 81.3744 21.4922 80.9682 21.2266C80.5619 20.9609 80.2494 20.5951 80.0307 20.1289C79.8119 19.6628 79.7025 19.1302 79.7025 18.5312C79.7025 17.9219 79.8145 17.3841 80.0385 16.918C80.265 16.4492 80.5801 16.0833 80.9838 15.8203C81.39 15.5547 81.864 15.4219 82.4057 15.4219C82.8275 15.4219 83.2077 15.5 83.5463 15.6562C83.8848 15.8125 84.1622 16.0312 84.3783 16.3125C84.5945 16.5937 84.7286 16.9219 84.7807 17.2969H83.8588C83.7885 17.0234 83.6322 16.7812 83.39 16.5703C83.1505 16.3568 82.8275 16.25 82.4213 16.25C82.0619 16.25 81.7468 16.3437 81.476 16.5312C81.2077 16.7161 80.9981 16.9779 80.8471 17.3164C80.6986 17.6523 80.6244 18.0469 80.6244 18.5C80.6244 18.9635 80.6973 19.3672 80.8432 19.7109C80.9916 20.0547 81.1999 20.3216 81.4682 20.5117C81.739 20.7018 82.0567 20.7969 82.4213 20.7969C82.6609 20.7969 82.8783 20.7552 83.0736 20.6719C83.2689 20.5885 83.4343 20.4688 83.5697 20.3125C83.7051 20.1562 83.8015 19.9687 83.8588 19.75H84.7807C84.7286 20.1042 84.5997 20.4232 84.3939 20.707C84.1908 20.9883 83.9213 21.2122 83.5854 21.3789C83.252 21.543 82.864 21.625 82.4213 21.625ZM88.4077 15.5V16.2812H85.2983V15.5H88.4077ZM86.2046 14.0625H87.1264V19.7812C87.1264 20.0417 87.1642 20.237 87.2397 20.3672C87.3179 20.4948 87.4168 20.5807 87.5366 20.625C87.659 20.6667 87.7879 20.6875 87.9233 20.6875C88.0249 20.6875 88.1082 20.6823 88.1733 20.6719C88.2384 20.6589 88.2905 20.6484 88.3296 20.6406L88.5171 21.4687C88.4546 21.4922 88.3673 21.5156 88.2554 21.5391C88.1434 21.5651 88.0014 21.5781 87.8296 21.5781C87.5692 21.5781 87.3139 21.5221 87.0639 21.4102C86.8166 21.2982 86.6108 21.1276 86.4468 20.8984C86.2853 20.6693 86.2046 20.3802 86.2046 20.0312V14.0625ZM91.9156 21.625C91.3375 21.625 90.8388 21.4974 90.4195 21.2422C90.0028 20.9844 89.6812 20.625 89.4546 20.1641C89.2307 19.7005 89.1187 19.1615 89.1187 18.5469C89.1187 17.9323 89.2307 17.3906 89.4546 16.9219C89.6812 16.4505 89.9963 16.0833 90.4 15.8203C90.8062 15.5547 91.2802 15.4219 91.8218 15.4219C92.1343 15.4219 92.4429 15.474 92.7476 15.5781C93.0523 15.6823 93.3296 15.8516 93.5796 16.0859C93.8296 16.3177 94.0289 16.625 94.1773 17.0078C94.3257 17.3906 94.4 17.862 94.4 18.4219V18.8125H89.775V18.0156H93.4625C93.4625 17.6771 93.3948 17.375 93.2593 17.1094C93.1265 16.8437 92.9364 16.6341 92.689 16.4805C92.4442 16.3268 92.1552 16.25 91.8218 16.25C91.4546 16.25 91.1369 16.3411 90.8687 16.5234C90.6031 16.7031 90.3987 16.9375 90.2554 17.2266C90.1122 17.5156 90.0406 17.8255 90.0406 18.1562V18.6875C90.0406 19.1406 90.1187 19.5247 90.275 19.8398C90.4338 20.1523 90.6539 20.3906 90.9351 20.5547C91.2164 20.7161 91.5432 20.7969 91.9156 20.7969C92.1578 20.7969 92.3765 20.763 92.5718 20.6953C92.7698 20.625 92.9403 20.5208 93.0836 20.3828C93.2268 20.2422 93.3375 20.0677 93.4156 19.8594L94.3062 20.1094C94.2125 20.4115 94.0549 20.6771 93.8336 20.9062C93.6122 21.1328 93.3388 21.3099 93.0132 21.4375C92.6877 21.5625 92.3218 21.625 91.9156 21.625ZM97.7379 21.625C97.2379 21.625 96.7965 21.4987 96.4137 21.2461C96.0309 20.9909 95.7314 20.6315 95.5153 20.168C95.2991 19.7018 95.1911 19.151 95.1911 18.5156C95.1911 17.8854 95.2991 17.3385 95.5153 16.875C95.7314 16.4115 96.0322 16.0534 96.4176 15.8008C96.803 15.5482 97.2483 15.4219 97.7536 15.4219C98.1442 15.4219 98.4528 15.487 98.6793 15.6172C98.9085 15.7448 99.083 15.8906 99.2028 16.0547C99.3252 16.2161 99.4202 16.349 99.4879 16.4531H99.5661V13.5H100.488V21.5H99.5973V20.5781H99.4879C99.4202 20.6875 99.3239 20.8255 99.1989 20.9922C99.0739 21.1562 98.8955 21.3034 98.6637 21.4336C98.4319 21.5612 98.1233 21.625 97.7379 21.625ZM97.8629 20.7969C98.2327 20.7969 98.5452 20.7005 98.8004 20.5078C99.0556 20.3125 99.2496 20.043 99.3825 19.6992C99.5153 19.3529 99.5817 18.9531 99.5817 18.5C99.5817 18.0521 99.5166 17.6602 99.3864 17.3242C99.2562 16.9857 99.0635 16.7227 98.8082 16.5352C98.553 16.3451 98.2379 16.25 97.8629 16.25C97.4723 16.25 97.1468 16.3503 96.8864 16.5508C96.6286 16.7487 96.4345 17.0182 96.3043 17.3594C96.1767 17.6979 96.1129 18.0781 96.1129 18.5C96.1129 18.9271 96.178 19.3151 96.3082 19.6641C96.4411 20.0104 96.6364 20.2865 96.8942 20.4922C97.1546 20.6953 97.4775 20.7969 97.8629 20.7969ZM104.863 21.5V13.5H105.785V16.4531H105.863C105.931 16.349 106.025 16.2161 106.144 16.0547C106.267 15.8906 106.441 15.7448 106.668 15.6172C106.897 15.487 107.207 15.4219 107.597 15.4219C108.103 15.4219 108.548 15.5482 108.933 15.8008C109.319 16.0534 109.62 16.4115 109.836 16.875C110.052 17.3385 110.16 17.8854 110.16 18.5156C110.16 19.151 110.052 19.7018 109.836 20.168C109.62 20.6315 109.32 20.9909 108.937 21.2461C108.554 21.4987 108.113 21.625 107.613 21.625C107.228 21.625 106.919 21.5612 106.687 21.4336C106.456 21.3034 106.277 21.1562 106.152 20.9922C106.027 20.8255 105.931 20.6875 105.863 20.5781H105.754V21.5H104.863ZM105.769 18.5C105.769 18.9531 105.836 19.3529 105.969 19.6992C106.101 20.043 106.295 20.3125 106.551 20.5078C106.806 20.7005 107.118 20.7969 107.488 20.7969C107.874 20.7969 108.195 20.6953 108.453 20.4922C108.713 20.2865 108.909 20.0104 109.039 19.6641C109.172 19.3151 109.238 18.9271 109.238 18.5C109.238 18.0781 109.173 17.6979 109.043 17.3594C108.915 17.0182 108.721 16.7487 108.461 16.5508C108.203 16.3503 107.879 16.25 107.488 16.25C107.113 16.25 106.798 16.3451 106.543 16.5352C106.288 16.7227 106.095 16.9857 105.965 17.3242C105.834 17.6602 105.769 18.0521 105.769 18.5ZM111.619 23.75C111.463 23.75 111.323 23.737 111.201 23.7109C111.079 23.6875 110.994 23.6641 110.947 23.6406L111.182 22.8281C111.405 22.8854 111.603 22.9063 111.775 22.8906C111.947 22.875 112.099 22.7982 112.232 22.6602C112.368 22.5247 112.491 22.3047 112.603 22L112.775 21.5313L110.557 15.5H111.557L113.213 20.2812H113.275L114.932 15.5H115.932L113.385 22.375C113.27 22.6849 113.128 22.9414 112.959 23.1445C112.79 23.3503 112.593 23.5026 112.369 23.6016C112.148 23.7005 111.898 23.75 111.619 23.75Z" fill="#A0A09D"/>
<path d="M53.8789 34.5V26.5H58.8398V27.5391H55.0859V29.9766H58.4844V31.0117H55.0859V34.5H53.8789ZM60.2305 34.5V28.5H61.3984V34.5H60.2305ZM60.8203 27.5742C60.6172 27.5742 60.4427 27.5065 60.2969 27.3711C60.1536 27.2331 60.082 27.069 60.082 26.8789C60.082 26.6862 60.1536 26.5221 60.2969 26.3867C60.4427 26.2487 60.6172 26.1797 60.8203 26.1797C61.0234 26.1797 61.1966 26.2487 61.3398 26.3867C61.4857 26.5221 61.5586 26.6862 61.5586 26.8789C61.5586 27.069 61.4857 27.2331 61.3398 27.3711C61.1966 27.5065 61.0234 27.5742 60.8203 27.5742ZM64.1377 30.9375V34.5H62.9697V28.5H64.0908V29.4766H64.165C64.3031 29.1589 64.5192 28.9036 64.8135 28.7109C65.1104 28.5182 65.484 28.4219 65.9346 28.4219C66.3434 28.4219 66.7015 28.5078 67.0088 28.6797C67.3161 28.849 67.5544 29.1016 67.7236 29.4375C67.8929 29.7734 67.9775 30.1888 67.9775 30.6836V34.5H66.8096V30.8242C66.8096 30.3893 66.6963 30.0495 66.4697 29.8047C66.2432 29.5573 65.932 29.4336 65.5361 29.4336C65.2653 29.4336 65.0244 29.4922 64.8135 29.6094C64.6051 29.7266 64.4398 29.8984 64.3174 30.125C64.1976 30.349 64.1377 30.6198 64.1377 30.9375ZM72.0596 36.875C71.583 36.875 71.1729 36.8125 70.8291 36.6875C70.488 36.5625 70.2093 36.3971 69.9932 36.1914C69.777 35.9857 69.6156 35.7604 69.5088 35.5156L70.5127 35.1016C70.583 35.2161 70.6768 35.3372 70.7939 35.4648C70.9137 35.5951 71.0752 35.7057 71.2783 35.7969C71.484 35.888 71.7484 35.9336 72.0713 35.9336C72.514 35.9336 72.8799 35.8255 73.1689 35.6094C73.458 35.3958 73.6025 35.0547 73.6025 34.5859V33.4062H73.5283C73.458 33.5339 73.3564 33.6758 73.2236 33.832C73.0934 33.9883 72.9137 34.1237 72.6846 34.2383C72.4554 34.3529 72.1572 34.4102 71.79 34.4102C71.3161 34.4102 70.889 34.2995 70.5088 34.0781C70.1312 33.8542 69.8317 33.5247 69.6104 33.0898C69.3916 32.6523 69.2822 32.1146 69.2822 31.4766C69.2822 30.8385 69.3903 30.2917 69.6064 29.8359C69.8252 29.3802 70.1247 29.0312 70.5049 28.7891C70.8851 28.5443 71.3161 28.4219 71.7979 28.4219C72.1702 28.4219 72.471 28.4844 72.7002 28.6094C72.9294 28.7318 73.1077 28.875 73.2354 29.0391C73.3656 29.2031 73.4658 29.3477 73.5361 29.4727H73.6221V28.5H74.7666V34.6328C74.7666 35.1484 74.6468 35.5716 74.4072 35.9023C74.1676 36.2331 73.8434 36.4779 73.4346 36.6367C73.0283 36.7956 72.57 36.875 72.0596 36.875ZM72.0479 33.4414C72.3838 33.4414 72.6676 33.3633 72.8994 33.207C73.1338 33.0482 73.3109 32.8216 73.4307 32.5273C73.5531 32.2305 73.6143 31.875 73.6143 31.4609C73.6143 31.0573 73.5544 30.7018 73.4346 30.3945C73.3148 30.0872 73.139 29.8477 72.9072 29.6758C72.6755 29.5013 72.389 29.4141 72.0479 29.4141C71.6963 29.4141 71.4033 29.5052 71.1689 29.6875C70.9346 29.8672 70.7575 30.112 70.6377 30.4219C70.5205 30.7318 70.4619 31.0781 70.4619 31.4609C70.4619 31.8542 70.5218 32.1992 70.6416 32.4961C70.7614 32.793 70.9385 33.0247 71.1729 33.1914C71.4098 33.3581 71.7015 33.4414 72.0479 33.4414ZM78.9189 34.6211C78.3278 34.6211 77.8187 34.4948 77.3916 34.2422C76.9671 33.987 76.639 33.6289 76.4072 33.168C76.1781 32.7044 76.0635 32.1615 76.0635 31.5391C76.0635 30.9245 76.1781 30.3828 76.4072 29.9141C76.639 29.4453 76.9619 29.0794 77.376 28.8164C77.7926 28.5534 78.2796 28.4219 78.8369 28.4219C79.1755 28.4219 79.5036 28.4779 79.8213 28.5898C80.139 28.7018 80.4242 28.8776 80.6768 29.1172C80.9294 29.3568 81.1286 29.668 81.2744 30.0508C81.4202 30.431 81.4932 30.8932 81.4932 31.4375V31.8516H76.7236V30.9766H80.3486C80.3486 30.6693 80.2861 30.3971 80.1611 30.1602C80.0361 29.9206 79.8604 29.7318 79.6338 29.5937C79.4098 29.4557 79.1468 29.3867 78.8447 29.3867C78.5166 29.3867 78.2301 29.4674 77.9854 29.6289C77.7432 29.7878 77.5557 29.9961 77.4229 30.2539C77.2926 30.5091 77.2275 30.7865 77.2275 31.0859V31.7695C77.2275 32.1706 77.2979 32.5117 77.4385 32.793C77.5817 33.0742 77.7809 33.2891 78.0361 33.4375C78.2913 33.5833 78.5895 33.6562 78.9307 33.6562C79.152 33.6562 79.3538 33.625 79.5361 33.5625C79.7184 33.4974 79.876 33.401 80.0088 33.2734C80.1416 33.1458 80.2432 32.9883 80.3135 32.8008L81.4189 33C81.3304 33.3255 81.1715 33.6107 80.9424 33.8555C80.7158 34.0977 80.4307 34.2865 80.0869 34.4219C79.7458 34.5547 79.3564 34.6211 78.9189 34.6211ZM82.7891 34.5V28.5H83.918V29.4531H83.9805C84.0898 29.1302 84.2826 28.8763 84.5586 28.6914C84.8372 28.5039 85.1523 28.4102 85.5039 28.4102C85.5768 28.4102 85.6628 28.4128 85.7617 28.418C85.8633 28.4232 85.9427 28.4297 86 28.4375V29.5547C85.9531 29.5417 85.8698 29.5273 85.75 29.5117C85.6302 29.4935 85.5104 29.4844 85.3906 29.4844C85.1146 29.4844 84.8685 29.543 84.6523 29.6602C84.4388 29.7747 84.2695 29.9349 84.1445 30.1406C84.0195 30.3437 83.957 30.5755 83.957 30.8359V34.5H82.7891ZM87.0107 36.75V28.5H88.1514V29.4727H88.249C88.3167 29.3477 88.4144 29.2031 88.542 29.0391C88.6696 28.875 88.8467 28.7318 89.0732 28.6094C89.2998 28.4844 89.5993 28.4219 89.9717 28.4219C90.4561 28.4219 90.8883 28.5443 91.2686 28.7891C91.6488 29.0339 91.9469 29.3867 92.1631 29.8477C92.3818 30.3086 92.4912 30.8633 92.4912 31.5117C92.4912 32.1602 92.3831 32.7161 92.167 33.1797C91.9508 33.6406 91.654 33.9961 91.2764 34.2461C90.8988 34.4935 90.4678 34.6172 89.9834 34.6172C89.6188 34.6172 89.3206 34.556 89.0889 34.4336C88.8597 34.3112 88.68 34.168 88.5498 34.0039C88.4196 33.8398 88.3193 33.694 88.249 33.5664H88.1787V36.75H87.0107ZM88.1553 31.5C88.1553 31.9219 88.2165 32.2917 88.3389 32.6094C88.4613 32.9271 88.6383 33.1758 88.8701 33.3555C89.1019 33.5326 89.3857 33.6211 89.7217 33.6211C90.0706 33.6211 90.3623 33.5286 90.5967 33.3437C90.8311 33.1562 91.0081 32.9023 91.1279 32.582C91.2503 32.2617 91.3115 31.901 91.3115 31.5C91.3115 31.1042 91.2516 30.7487 91.1318 30.4336C91.0146 30.1185 90.8376 29.8698 90.6006 29.6875C90.3662 29.5052 90.0732 29.4141 89.7217 29.4141C89.3831 29.4141 89.0967 29.5013 88.8623 29.6758C88.6305 29.8503 88.4548 30.0937 88.335 30.4062C88.2152 30.7187 88.1553 31.0833 88.1553 31.5ZM93.7998 34.5V28.5H94.9287V29.4531H94.9912C95.1006 29.1302 95.2933 28.8763 95.5693 28.6914C95.848 28.5039 96.1631 28.4102 96.5146 28.4102C96.5876 28.4102 96.6735 28.4128 96.7725 28.418C96.874 28.4232 96.9535 28.4297 97.0107 28.4375V29.5547C96.9639 29.5417 96.8805 29.5273 96.7607 29.5117C96.641 29.4935 96.5212 29.4844 96.4014 29.4844C96.1253 29.4844 95.8792 29.543 95.6631 29.6602C95.4495 29.7747 95.2803 29.9349 95.1553 30.1406C95.0303 30.3437 94.9678 30.5755 94.9678 30.8359V34.5H93.7998ZM98.0215 34.5V28.5H99.1895V34.5H98.0215ZM98.6113 27.5742C98.4082 27.5742 98.2337 27.5065 98.0879 27.3711C97.9447 27.2331 97.873 27.069 97.873 26.8789C97.873 26.6862 97.9447 26.5221 98.0879 26.3867C98.2337 26.2487 98.4082 26.1797 98.6113 26.1797C98.8145 26.1797 98.9876 26.2487 99.1309 26.3867C99.2767 26.5221 99.3496 26.6862 99.3496 26.8789C99.3496 27.069 99.2767 27.2331 99.1309 27.3711C98.9876 27.5065 98.8145 27.5742 98.6113 27.5742ZM101.929 30.9375V34.5H100.761V28.5H101.882V29.4766H101.956C102.094 29.1589 102.31 28.9036 102.604 28.7109C102.901 28.5182 103.275 28.4219 103.726 28.4219C104.134 28.4219 104.493 28.5078 104.8 28.6797C105.107 28.849 105.345 29.1016 105.515 29.4375C105.684 29.7734 105.769 30.1888 105.769 30.6836V34.5H104.601V30.8242C104.601 30.3893 104.487 30.0495 104.261 29.8047C104.034 29.5573 103.723 29.4336 103.327 29.4336C103.056 29.4336 102.815 29.4922 102.604 29.6094C102.396 29.7266 102.231 29.8984 102.108 30.125C101.989 30.349 101.929 30.6198 101.929 30.9375ZM110.136 28.5V29.4375H106.858V28.5H110.136ZM107.737 27.0625H108.905V32.7383C108.905 32.9648 108.939 33.1354 109.007 33.25C109.075 33.362 109.162 33.4388 109.269 33.4805C109.378 33.5195 109.496 33.5391 109.624 33.5391C109.718 33.5391 109.8 33.5326 109.87 33.5195C109.94 33.5065 109.995 33.4961 110.034 33.4883L110.245 34.4531C110.177 34.4792 110.081 34.5052 109.956 34.5313C109.831 34.5599 109.675 34.5755 109.487 34.5781C109.18 34.5833 108.894 34.5286 108.628 34.4141C108.362 34.2995 108.147 34.1224 107.983 33.8828C107.819 33.6432 107.737 33.3424 107.737 32.9805V27.0625Z" fill="#FAFAF8"/>
</g>
<defs>
<filter id="filter0_dd_12794_22523" x="0.875" y="2.875" width="48.25" height="48.25" filterUnits="userSpaceOnUse" color-interpolation-filters="sRGB">
<feFlood flood-opacity="0" result="BackgroundImageFix"/>
<feColorMatrix in="SourceAlpha" type="matrix" values="0 0 0 0 0 0 0 0 0 0 0 0 0 0 0 0 0 0 127 0" result="hardAlpha"/>
<feMorphology radius="1.75" operator="erode" in="SourceAlpha" result="effect1_dropShadow_12794_22523"/>
<feOffset dy="1.75"/>
<feGaussianBlur stdDeviation="1.75"/>
<feComposite in2="hardAlpha" operator="out"/>
<feColorMatrix type="matrix" values="0 0 0 0 0.0941176 0 0 0 0 0.0980392 0 0 0 0 0.0862745 0 0 0 0.1 0"/>
<feBlend mode="normal" in2="BackgroundImageFix" result="effect1_dropShadow_12794_22523"/>
<feColorMatrix in="SourceAlpha" type="matrix" values="0 0 0 0 0 0 0 0 0 0 0 0 0 0 0 0 0 0 127 0" result="hardAlpha"/>
<feMorphology radius="0.875" operator="erode" in="SourceAlpha" result="effect2_dropShadow_12794_22523"/>
<feOffset dy="3"/>
<feGaussianBlur stdDeviation="2.5"/>
<feComposite in2="hardAlpha" operator="out"/>
<feColorMatrix type="matrix" values="0 0 0 0 0.0941176 0 0 0 0 0.0980392 0 0 0 0 0.0862745 0 0 0 1 0"/>
<feBlend mode="normal" in2="effect1_dropShadow_12794_22523" result="effect2_dropShadow_12794_22523"/>
<feBlend mode="normal" in="SourceGraphic" in2="effect2_dropShadow_12794_22523" result="shape"/>
</filter>
<filter id="filter1_dd_12794_22523" x="40.875" y="2.875" width="91.9062" height="48.25" filterUnits="userSpaceOnUse" color-interpolation-filters="sRGB">
<feFlood flood-opacity="0" result="BackgroundImageFix"/>
<feColorMatrix in="SourceAlpha" type="matrix" values="0 0 0 0 0 0 0 0 0 0 0 0 0 0 0 0 0 0 127 0" result="hardAlpha"/>
<feMorphology radius="1.75" operator="erode" in="SourceAlpha" result="effect1_dropShadow_12794_22523"/>
<feOffset dy="1.75"/>
<feGaussianBlur stdDeviation="1.75"/>
<feComposite in2="hardAlpha" operator="out"/>
<feColorMatrix type="matrix" values="0 0 0 0 0.0941176 0 0 0 0 0.0980392 0 0 0 0 0.0862745 0 0 0 0.1 0"/>
<feBlend mode="normal" in2="BackgroundImageFix" result="effect1_dropShadow_12794_22523"/>
<feColorMatrix in="SourceAlpha" type="matrix" values="0 0 0 0 0 0 0 0 0 0 0 0 0 0 0 0 0 0 127 0" result="hardAlpha"/>
<feMorphology radius="0.875" operator="erode" in="SourceAlpha" result="effect2_dropShadow_12794_22523"/>
<feOffset dy="3"/>
<feGaussianBlur stdDeviation="2.5"/>
<feComposite in2="hardAlpha" operator="out"/>
<feColorMatrix type="matrix" values="0 0 0 0 0.0941176 0 0 0 0 0.0980392 0 0 0 0 0.0862745 0 0 0 1 0"/>
<feBlend mode="normal" in2="effect1_dropShadow_12794_22523" result="effect2_dropShadow_12794_22523"/>
<feBlend mode="normal" in="SourceGraphic" in2="effect2_dropShadow_12794_22523" result="shape"/>
</filter>
<linearGradient id="paint0_linear_12794_22523" x1="66.8281" y1="0" x2="66.8281" y2="48" gradientUnits="userSpaceOnUse">
<stop stop-color="white" stop-opacity="0"/>
<stop offset="1" stop-color="white" stop-opacity="0.2"/>
</linearGradient>
<linearGradient id="paint1_linear_12794_22523" x1="25" y1="4" x2="25" y2="44" gradientUnits="userSpaceOnUse">
<stop stop-color="#A0A09D"/>
<stop offset="1" stop-color="#181916"/>
</linearGradient>
<linearGradient id="paint2_linear_12794_22523" x1="20.3997" y1="12.5856" x2="29.5124" y2="35.888" gradientUnits="userSpaceOnUse">
<stop/>
<stop offset="0.479672" stop-opacity="0"/>
<stop offset="1"/>
</linearGradient>
<clipPath id="clip0_12794_22523">
<path d="M5 8C5 5.79086 6.79086 4 9 4H45V44H9C6.79086 44 5 42.2091 5 40V8Z" fill="white"/>
</clipPath>
</defs>
</svg>
